PathFileType	4	(X/Y/Z)	/Users/visionmauri/Downloads/Videos/OAW13-top_Sports2D/OAW13-top_Sports2D_m_person00.trc
DataRate	CameraRate	NumFrames	NumMarkers	Units	OrigDataRate	OrigDataStartFrame	OrigNumFrames
27.0	27.0	11	22	m	27.0	988	1977
Frame#	Time	Hip			RHip			RKnee			RAnkle			RBigToe			RSmallToe			RHeel			LHip			LKnee			LAnkle			LBigToe			LSmallToe			LHeel			Neck			Head			Nose			RShoulder			RElbow			RWrist			LShoulder			LElbow			LWrist			
		X1	Y1	Z1	X2	Y2	Z2	X3	Y3	Z3	X4	Y4	Z4	X5	Y5	Z5	X6	Y6	Z6	X7	Y7	Z7	X8	Y8	Z8	X9	Y9	Z9	X10	Y10	Z10	X11	Y11	Z11	X12	Y12	Z12	X13	Y13	Z13	X14	Y14	Z14	X15	Y15	Z15	X16	Y16	Z16	X17	Y17	Z17	X18	Y18	Z18	X19	Y19	Z19	X20	Y20	Z20	X21	Y21	Z21	X22	Y22	Z22
988	36.611111111111114	3.958874724560018	0.07359957073017571	0.0301	3.974002409024376	0.013445958034241503	0.0301	3.748798446402279	-0.048859420534540225	0.129	3.502252224227141	-0.10511294500427718	0.023	3.4639376757151856	-0.1012219454965635	0.2179	3.464900968169586	-0.15341787073565866	0.1804	3.4526776813607114	-0.11501295805822588	-0.0119	3.9375157724336884	0.12976967006293288	0.0301	3.7395280776555992	0.05508847998841222	0.129	3.5456906460303865	-0.018796385317284385	0.023	3.5299374507824535	-0.03024174487758172	0.2179	3.5042268803706498	-0.0009050980226669743	0.1804	3.5019809649814624	-0.03778986437928052	-0.0119	4.263089373287271	0.153391198207919	0.0008	4.35263157162857	0.19599678539733237	0.0655	4.263548624534475	0.15131854108420614	0.1076	4.277217892506079	0.045337927979896754	-0.01275	4.122982213372335	-0.08641502681976483	0.0702	4.00818697860513	-0.09889866649509993	0.1076	4.217844120974921	0.25082717440815433	-0.01275	4.036103480291947	0.24640806085517944	0.0702	3.866287125806324	0.23732657867418777	0.1076
989	36.64816689158795	3.9585525851498002	0.0760610017715961	0.0301	3.9743021803300183	0.016855010590731554	0.0301	3.7476909312494997	-0.04723813381213918	0.129	3.5036730317984897	-0.10480830616490039	0.023	3.4602966993167215	-0.10142883320374868	0.2179	3.4634930316411547	-0.15294758429944771	0.1804	3.456552252171353	-0.11198574428190079	-0.0119	3.938669145748617	0.13181183099352797	0.0301	3.7395852060268178	0.05469327243441007	0.129	3.536693181868843	-0.02099088736746544	0.023	3.518722517398935	-0.040564521495321616	0.2179	3.4946082099073945	-0.010006615519992068	0.1804	3.495029201243018	-0.04015472466299311	-0.0119	4.2614154801783535	0.15609498560412377	0.0008	4.352100684885827	0.19777141149630284	0.0655	4.261862990812475	0.1540516142356153	0.1076	4.277758759758415	0.050108499390632014	-0.01275	4.124367341645965	-0.08625074575003884	0.0702	4.0100704806837815	-0.09511277613024961	0.1076	4.216496108930406	0.25298113443604137	-0.01275	4.035099412663533	0.24925592124397966	0.0702	3.865154616199259	0.24190817928282016	0.1076
990	36.68522267206478	3.9585010499342372	0.07804457257435932	0.0301	3.974990599589818	0.019559197401679985	0.0301	3.748239467387614	-0.04570476401058952	0.129	3.507634002445283	-0.10395048195276364	0.023	3.4587142339055976	-0.1012177736638842	0.2179	3.4637335673424863	-0.15137352438933296	0.1804	3.460869501909895	-0.10995975532290475	-0.0119	3.9410571241831387	0.13294435873539648	0.0301	3.7408360927170876	0.05610911578442729	0.129	3.5331315491921993	-0.021175688849231617	0.023	3.5178176179409784	-0.04463621892329355	0.2179	3.4926203599576953	-0.013605064524832872	0.1804	3.491351905572764	-0.04115777364378993	-0.0119	4.259487225394674	0.15799928334888486	0.0008	4.352611853934489	0.19989732275865102	0.0655	4.26085643428937	0.15619789306556228	0.1076	4.2777309009420295	0.053848191200419435	-0.01275	4.125625310757783	-0.0844349690030639	0.0702	4.011588551537593	-0.09174647018617939	0.1076	4.215582537705001	0.25489349807155887	-0.01275	4.034224033331374	0.2516487020622846	0.0702	3.865501430658044	0.24606829229502133	0.1076
991	36.722278452541616	3.961790763774811	0.08131030413989124	0.0301	3.9787418506878445	0.022078069703168248	0.0301	3.7527940895666974	-0.04370032262501877	0.129	3.515343861098969	-0.10244086231333145	0.023	3.4604620265511605	-0.10065643257499313	0.2179	3.466450516228567	-0.15057620101934227	0.1804	3.46606147283279	-0.10860937684244416	-0.0119	3.9452957187687017	0.13407356827157013	0.0301	3.7441617035252928	0.05809627740167565	0.129	3.541690880078623	-0.01858844631822964	0.023	3.519978820088743	-0.048239347138408745	0.2179	3.494131109697944	-0.013069640763906733	0.1804	3.4952101052315365	-0.03914910680468001	-0.0119	4.25762057971217	0.1603848884213846	0.0008	4.354283717439162	0.20301574099127048	0.0655	4.261582871486327	0.1579319968208099	0.1076	4.276871009776921	0.05656364004147796	-0.01275	4.127446905525367	-0.07891318452879394	0.0702	4.011818489673984	-0.08919892502496106	0.1076	4.214300690762467	0.2576716250918999	-0.01275	4.033578510376171	0.25457903206613636	0.0702	3.866119214263227	0.24954460509040577	0.1076
992	36.75933423301845	3.9661274921413257	0.08524184539202698	0.0301	3.9837115477059233	0.025983502031899083	0.0301	3.7596307803785503	-0.042284771210310226	0.129	3.5268484749597135	-0.10109174392443385	0.023	3.468216104013399	-0.10114888170503564	0.2179	3.474822015482646	-0.15092418587075807	0.1804	3.473802855379998	-0.10705668182453058	-0.0119	3.9489530741936565	0.13648584802412025	0.0301	3.748851577965719	0.058958638550805714	0.129	3.555094338467326	-0.015567278304455147	0.023	3.5191071174767994	-0.054422053758655824	0.2179	3.494838821168324	-0.012301335413753629	0.1804	3.503836102157848	-0.03596037511852973	-0.0119	4.256577548652793	0.16331872689156995	0.0008	4.354970422830926	0.20534549918648548	0.0655	4.263172985747685	0.16008174242408763	0.1076	4.276422704121771	0.059812734609357605	-0.01275	4.129301268699439	-0.07126857138700318	0.0702	4.010405772624696	-0.08686237853543208	0.1076	4.2131727764541855	0.26085517098455824	-0.01275	4.032998968449935	0.25756280801406045	0.0702	3.8671218679607104	0.25232798947247	0.1076
993	36.79639001349528	3.967646240670506	0.08800124302206731	0.0301	3.9863825524038883	0.031233135218071046	0.0301	3.765817931902066	-0.04167732049002537	0.129	3.542385944288742	-0.09991016192730974	0.023	3.4817037263539206	-0.10297591778781826	0.2179	3.489019112418982	-0.1507351386224585	0.1804	3.486496905878078	-0.10559347114831028	-0.0119	3.9500896916057116	0.13998097750041397	0.0301	3.7523915605740323	0.05861475680825707	0.129	3.562704986639289	-0.014657684148322891	0.023	3.5162417060697773	-0.05946098624561601	0.2179	3.494556167018015	-0.012647250169098184	0.1804	3.5102946307588394	-0.03457947181074722	-0.0119	4.255880782258245	0.16578123063209335	0.0008	4.354730519002042	0.20584723653676493	0.0655	4.264554266850493	0.16148692513832097	0.1076	4.276986601841979	0.0631474428519247	-0.01275	4.130611204256112	-0.06409822815802664	0.0702	4.007250664703939	-0.0850968049063984	0.1076	4.213013741868106	0.2633638806908788	-0.01275	4.032929538268602	0.2596896968349591	0.0702	3.8687966887555665	0.2551670934995119	0.1076
994	36.83344579397211	3.967347719667521	0.08985794290929357	0.0301	3.9864120808236225	0.035557997234018535	0.0301	3.7713603739611905	-0.0404966466962371	0.129	3.559872025762968	-0.09795097162436243	0.023	3.49533172610175	-0.10448490496656347	0.2179	3.5035510956254514	-0.1490234266734046	0.1804	3.5034571346138246	-0.10496269421321776	-0.0119	3.950487916800049	0.14306580810363345	0.0301	3.7532140510721725	0.05871347542172287	0.129	3.5614136940814634	-0.016023634540464328	0.023	3.5161313260243334	-0.05968256144537965	0.2179	3.4950152362420233	-0.013304167871724087	0.1804	3.5102190256212666	-0.03611227945356299	-0.0119	4.253864127849429	0.16657252663615774	0.0008	4.35614378562154	0.20620723270561572	0.0655	4.264949830864569	0.16268749314936296	0.1076	4.27801235412333	0.0648493154251287	-0.01275	4.130940288774628	-0.05754256322029927	0.0702	4.001493344620295	-0.08479122454853628	0.1076	4.213537295059518	0.26488372589161513	-0.01275	4.033788464179093	0.26151609638423806	0.0702	3.870568060772517	0.2586842505860688	0.1076
995	36.870501574448944	3.9682733886652928	0.09184243068753736	0.0301	3.9859009925203748	0.03723639586065076	0.0301	3.777170066255238	-0.03856713649508267	0.129	3.573686313919948	-0.09574188815358109	0.023	3.5036389206161953	-0.10504702763157348	0.2179	3.5127621512628826	-0.14698607527506843	0.1804	3.5181526420262426	-0.10603614051316376	-0.0119	3.951817858212384	0.144799371551155	0.0301	3.7529775692690843	0.06006743223375377	0.129	3.555406127421343	-0.018243495682467335	0.023	3.5211942399230565	-0.05680937996328853	0.2179	3.497547385648856	-0.013885570470894752	0.1804	3.5058927698720224	-0.03914113317247774	-0.0119	4.250918892269351	0.16545472036795153	0.0008	4.359430112850094	0.20702606662958956	0.0655	4.263282414756614	0.16554384506498457	0.1076	4.279088799484519	0.06500178631979914	-0.01275	4.1299870730567125	-0.051120844179644596	0.0702	3.993293749722921	-0.08535584127994757	0.1076	4.214102260566229	0.26534732477254824	-0.01275	4.03525322245183	0.26391134223353574	0.0702	3.8720931430595873	0.26198158771894875	0.1076
996	36.90755735492578	3.969887887715065	0.09334975181910611	0.0301	3.9858314160216026	0.03666924986893227	0.0301	3.78226357199655	-0.03723149440407549	0.129	3.579682895578189	-0.09521830178344419	0.023	3.5091539472759345	-0.1052707851577666	0.2179	3.5183586818747923	-0.14603063532920563	0.1804	3.52446589911911	-0.10857382056946888	-0.0119	3.9525424955975104	0.145019846754231	0.0301	3.753561760378766	0.061408856051084974	0.129	3.550898181360026	-0.019702111191591796	0.023	3.527354399831727	-0.05488131647031943	0.2179	3.5015636228560285	-0.014414554886168062	0.1804	3.5028872657011365	-0.041260887976236504	-0.0119	4.252388939323569	0.16485893560858444	0.0008	4.362859063472469	0.20723987854710924	0.0655	4.262130999451872	0.16897993797314245	0.1076	4.280344488215138	0.06503980164503519	-0.01275	4.128253653337223	-0.04552163477415301	0.0702	3.985423013941107	-0.08567398257381392	0.1076	4.2155396324127805	0.26488798242879563	-0.01275	4.037275249663292	0.26628502808901783	0.0702	3.8748691870949252	0.26395324368079043	0.1076
997	36.94461313540261	3.970716224263975	0.09380510052964652	0.0301	3.9859521527111426	0.03537301207533185	0.0301	3.785762547889936	-0.03672483885689975	0.129	3.580064195633835	-0.09645203662265074	0.023	3.518242698573409	-0.10479340343714397	0.2179	3.526143388071044	-0.14555502473344514	0.1804	3.5245320713823856	-0.11046729843247104	-0.0119	3.9517972966324986	0.1440490936682032	0.0301	3.754527778532652	0.06167231282893433	0.129	3.5501995355047233	-0.020079655771994078	0.023	3.528820632423844	-0.055127265861463354	0.2179	3.5046779434117563	-0.014777489668558585	0.1804	3.5031183708835325	-0.04139171530859126	-0.0119	4.261337504267149	0.1671752579011366	0.0008	4.3657610949348875	0.2068678888715434	0.0655	4.265779944100341	0.17105517014939636	0.1076	4.281930393635287	0.06521074787606494	-0.01275	4.126136646711058	-0.041181896570709114	0.0702	3.980094444890773	-0.08522809359355096	0.1076	4.218770582636486	0.26431190365358603	-0.01275	4.040628024032484	0.26767462461173297	0.0702	3.880971866708689	0.2648466581002706	0.1076
998	36.981668915879446	3.971724783299904	0.09394903835118425	0.0301	3.9864034132494437	0.03460890435505118	0.0301	3.787822647323375	-0.036162028840654954	0.129	3.580179763460031	-0.0972616217484752	0.023	3.5293593076689307	-0.10239662518551587	0.2179	3.5356597286555966	-0.14430563691943318	0.1804	3.525224738614346	-0.11090031674509787	-0.0119	3.9517638608034154	0.14311436614945047	0.0301	3.754826596009929	0.06145608941047844	0.129	3.5498634490486194	-0.020768695884992205	0.023	3.525206863833586	-0.055457971075562565	0.2179	3.5043409558488383	-0.015043777472294795	0.1804	3.5037125058931236	-0.040800462649001244	-0.0119	4.2706669042891505	0.17068437550965404	0.0008	4.367292031653546	0.20648250673044355	0.0655	4.2703857454802945	0.17226302936357799	0.1076	4.283730146473957	0.06505841070483477	-0.01275	4.12385794099961	-0.03769551914029631	0.0702	3.976332508923941	-0.08392390646514196	0.1076	4.22219778098952	0.26415891671461916	-0.01275	4.045944907149945	0.26870418973271365	0.0702	3.8900053979629114	0.2651236393389085	0.1076
